<?xml version="1.0" encoding="UTF-8" standalone="no"?>
<!-- Generator: Adobe Illustrator 16.0.4, SVG Export Plug-In . SVG Version: 6.00 Build 0)  -->

<svg
   xmlns:dc="http://purl.org/dc/elements/1.1/"
   xmlns:cc="http://creativecommons.org/ns#"
   xmlns:rdf="http://www.w3.org/1999/02/22-rdf-syntax-ns#"
   xmlns:svg="http://www.w3.org/2000/svg"
   xmlns="http://www.w3.org/2000/svg"
   xmlns:sodipodi="http://sodipodi.sourceforge.net/DTD/sodipodi-0.dtd"
   xmlns:inkscape="http://www.inkscape.org/namespaces/inkscape"
   version="1.1"
   id="Layer_1"
   x="0px"
   y="0px"
   width="128"
   height="128"
   viewBox="0 0 128 128"
   enable-background="new 0 0 104.718 112.004"
   xml:space="preserve"
   inkscape:version="0.48.5 r10040"
   sodipodi:docname="logo.svg"
   inkscape:export-filename="/home/tom/git/dronedronego/client/images/logo-35x35.png"
   inkscape:export-xdpi="24.610001"
   inkscape:export-ydpi="24.610001"><metadata
     id="metadata3020"><rdf:RDF><cc:Work
         rdf:about=""><dc:format>image/svg+xml</dc:format><dc:type
           rdf:resource="http://purl.org/dc/dcmitype/StillImage" /><dc:title></dc:title></cc:Work></rdf:RDF></metadata><defs
     id="defs3018" /><sodipodi:namedview
     pagecolor="#ffffff"
     bordercolor="#666666"
     borderopacity="1"
     objecttolerance="10"
     gridtolerance="10"
     guidetolerance="10"
     inkscape:pageopacity="0"
     inkscape:pageshadow="2"
     inkscape:window-width="1600"
     inkscape:window-height="885"
     id="namedview3016"
     showgrid="false"
     inkscape:zoom="3.7257603"
     inkscape:cx="83.357041"
     inkscape:cy="67.38287"
     inkscape:window-x="0"
     inkscape:window-y="15"
     inkscape:window-maximized="0"
     inkscape:current-layer="Layer_1"
     fit-margin-top="0"
     fit-margin-left="0"
     fit-margin-right="0"
     fit-margin-bottom="0"
     showguides="true"
     inkscape:guide-bbox="true" /><path
     d="M 118.58061,32.191143 C 112.52248,21.455427 111.61622,22.133119 111.61622,22.133119 104.94898,24.335345 100.14338,25.386757 97.172026,25.9033 92.288722,21.625712 86.584904,18.282921 80.313045,16.121862 79.286791,13.311638 77.717696,8.4146285 76.212603,1.1302565 c 0,0 0.121139,-1.130257 -12.059119,-1.130257 -12.200805,0 -12.068251,1.130257 -12.068251,1.130257 -1.449075,7.034101 -2.964497,11.8716695 -3.993024,14.7310215 -6.218115,2.031964 -11.910546,5.220449 -16.809827,9.333486 -2.95421,-0.581717 -7.727805,-1.738239 -14.335629,-4.074172 0,0 -0.895978,-0.698286 -7.17352,9.909442 -6.2878318,10.596262 -5.2638498,11.065965 -5.2638498,11.065965 4.8707238,4.575904 8.0489158,8.17009 9.9837258,10.565438 -0.836551,3.647902 -1.323386,7.434082 -1.323386,11.33797 0,3.537055 0.367977,6.980398 1.055968,10.312902 -1.988521,2.355335 -5.231861,5.868403 -10.1585945,10.305993 0,0 -1.0353915,0.451409 5.0284385,11.182569 6.058126,10.732269 6.959817,10.064849 6.959817,10.064849 6.671802,-2.20335 11.476268,-3.25932 14.448759,-3.77704 4.883303,4.28334 10.591714,7.62721 16.868102,9.78491 1.035433,2.81476 2.597646,7.70031 4.095922,14.99045 0,0 -0.132593,1.13596 12.064811,1.13596 12.182517,0 12.057962,-1.13596 12.057962,-1.13596 1.45253,-7.02828 2.959905,-11.87055 3.994157,-14.72532 6.216978,-2.03083 11.909412,-5.22046 16.805271,-9.33232 2.961074,0.58054 7.733504,1.73706 14.334464,4.0776 0,0 0.89028,0.6914 7.18952,-9.908315 6.27641,-10.606584 5.25358,-11.071688 5.25358,-11.071688 -4.87415,-4.578191 -8.04662,-8.175788 -9.98144,-10.566585 0.83311,-3.658183 1.31656,-7.439807 1.31656,-11.343697 0,-3.535916 -0.36574,-6.981544 -1.05598,-10.314011 1.98964,-2.345075 5.22614,-5.859278 10.16086,-10.302573 -0.003,0.0036 1.03775,-0.449132 -5.02729,-11.185988 z M 63.836921,109.0531 c -23.561649,0 -45.050236,-21.49088 -45.050236,-45.053693 0,-23.561636 21.488587,-45.051361 45.050236,-45.051361 23.56167,0 45.052529,21.489725 45.052529,45.051361 0,23.563948 -21.490859,45.053693 -45.052529,45.053693 z"
     id="path3014"
     inkscape:connector-curvature="0"
     sodipodi:nodetypes="cccccscccccccscccccccscccccccscccsssss" /><path
     style="fill:black;fill-opacity:1;stroke:black;stroke-width:2.38624763;stroke-miterlimit:4;stroke-opacity:1;stroke-dasharray:none"
     d="M 31.811336,45.235064 C 43.408781,23.80372 66.198722,21.988309 80.625102,30.303799 c 8.931172,5.148035 8.28671,12.466466 7.752772,16.797684 C 87.84394,51.432687 82.877603,60.984932 70.288053,58.874228 57.69854,56.763519 60.675432,44.088866 44.732649,41.789391 c -5.01601,-0.185743 -9.052057,1.097595 -12.921313,3.445673 z"
     id="path3877"
     inkscape:connector-curvature="0"
     sodipodi:nodetypes="cszzcc" /><path
     style="fill:black;fill-opacity:1;stroke:black;stroke-width:2.38624763;stroke-miterlimit:4;stroke-opacity:1;stroke-dasharray:none"
     d="M 95.50461,45.750399 C 108.46434,66.386506 98.83987,87.124081 84.505814,95.597684 75.63176,100.8436 69.575907,96.684097 66.066884,94.0896 62.557907,91.49508 56.681878,82.473896 64.709803,72.549008 72.737774,62.624131 82.3109,71.448166 92.151913,58.696151 c 2.627985,-4.276489 3.49497,-8.422002 3.352697,-12.945752 z"
     id="path3877-4"
     inkscape:connector-curvature="0"
     sodipodi:nodetypes="cszzcc" /><path
     style="fill:black;fill-opacity:1;stroke:black;stroke-width:2.38624763;stroke-miterlimit:4;stroke-opacity:1;stroke-dasharray:none"
     d="M 62.954352,101.25473 C 38.591548,101.76158 25.75231,82.845122 25.853473,66.194086 c 0.06259,-10.308477 6.743654,-13.364322 10.773058,-15.040251 4.029358,-1.675942 14.787936,-2.078113 19.1736,9.910094 4.385687,11.988197 -8.104535,15.662853 -2.226073,30.659665 2.317,4.452641 5.426998,7.327475 9.380294,9.531136 z"
     id="path3877-7"
     inkscape:connector-curvature="0"
     sodipodi:nodetypes="cszzcc" /></svg>