<?xml version="1.0" encoding="UTF-8" standalone="no"?>
<!-- Generator: Adobe Illustrator 16.0.4, SVG Export Plug-In . SVG Version: 6.00 Build 0)  -->

<svg
   xmlns:dc="http://purl.org/dc/elements/1.1/"
   xmlns:cc="http://creativecommons.org/ns#"
   xmlns:rdf="http://www.w3.org/1999/02/22-rdf-syntax-ns#"
   xmlns:svg="http://www.w3.org/2000/svg"
   xmlns="http://www.w3.org/2000/svg"
   xmlns:sodipodi="http://sodipodi.sourceforge.net/DTD/sodipodi-0.dtd"
   xmlns:inkscape="http://www.inkscape.org/namespaces/inkscape"
   version="1.1"
   id="Layer_1"
   x="0px"
   y="0px"
   width="100.30327"
   height="107.28131"
   viewBox="0 0 100.30327 107.28131"
   enable-background="new 0 0 104.718 112.004"
   xml:space="preserve"
   inkscape:version="0.48.5 r10040"
   sodipodi:docname="logo.svg"><metadata
     id="metadata3020"><rdf:RDF><cc:Work
         rdf:about=""><dc:format>image/svg+xml</dc:format><dc:type
           rdf:resource="http://purl.org/dc/dcmitype/StillImage" /><dc:title></dc:title></cc:Work></rdf:RDF></metadata><defs
     id="defs3018" /><sodipodi:namedview
     pagecolor="#ffffff"
     bordercolor="#666666"
     borderopacity="1"
     objecttolerance="10"
     gridtolerance="10"
     guidetolerance="10"
     inkscape:pageopacity="0"
     inkscape:pageshadow="2"
     inkscape:window-width="1600"
     inkscape:window-height="885"
     id="namedview3016"
     showgrid="false"
     inkscape:zoom="7.4515206"
     inkscape:cx="42.488646"
     inkscape:cy="49.95004"
     inkscape:window-x="0"
     inkscape:window-y="15"
     inkscape:window-maximized="0"
     inkscape:current-layer="Layer_1"
     fit-margin-top="0"
     fit-margin-left="0"
     fit-margin-right="0"
     fit-margin-bottom="0"
     showguides="true"
     inkscape:guide-bbox="true" /><path
     d="M 96.034038,26.980526 C 90.956509,17.982547 90.196943,18.550548 90.196943,18.550548 84.608886,20.396312 80.581155,21.277527 78.090764,21.710472 73.9979,18.125266 69.217305,15.323575 63.960662,13.512293 63.100519,11.156957 61.785401,7.052599 60.523921,0.947307 60.523921,0.947307 60.625453,0 50.41676,0 40.190828,0 40.301938,0.947307 40.301938,0.947307 39.087391,6.842831 37.81729,10.897382 36.955232,13.293905 31.743605,14.996951 26.97259,17.669333 22.866318,21.11661 20.390289,20.629067 16.389379,19.659731 10.851137,17.7019 c 0,0 -0.750955,-0.585242 -6.0123876,8.305457 -5.27005275,8.881122 -4.41181735,9.274794 -4.41181735,9.274794 4.08232425,3.835205 6.74607955,6.847622 8.36771115,8.855261 -0.701141,3.057435 -1.109177,6.230769 -1.109177,9.502761 0,2.964524 0.308416,5.850506 0.885045,8.643577 -1.666648,1.974114 -4.3850071,4.918524 -8.51427525,8.637828 0,0 -0.8677981,0.378349 4.21451185,9.372496 5.0775284,8.995104 5.8332642,8.435724 5.8332642,8.435724 5.591886,-1.84672 9.618663,-2.73177 12.110012,-3.16567 4.092863,3.59 8.877287,6.39264 14.137769,8.20106 0.867806,2.35916 2.177168,6.453942 3.432909,12.564022 0,0 -0.11111,0.9521 10.111951,0.9521 10.210606,0 10.106201,-0.9521 10.106201,-0.9521 1.217419,-5.89073 2.480814,-9.949112 3.347662,-12.341802 5.210667,-1.7021 9.981684,-4.37544 14.085083,-7.82176 2.481772,0.48659 6.481724,1.45592 12.014227,3.41759 0,0 0.746158,0.57949 6.025789,-8.3045 5.260475,-8.889743 4.403203,-9.279585 4.403203,-9.279585 -4.085199,-3.837121 -6.744173,-6.852411 -8.365797,-8.856219 0.698262,-3.066054 1.103436,-6.235558 1.103436,-9.507551 0,-2.963565 -0.306513,-5.851463 -0.885053,-8.644533 1.667608,-1.965494 4.380218,-4.910861 8.516186,-8.634956 -0.002,0.0028 0.86973,-0.376432 -4.213552,-9.375368 z M 50.151441,91.401248 c -19.747861,0 -37.758204,-18.012265 -37.758204,-37.761075 0,-19.747851 18.010343,-37.759156 37.758204,-37.759156 19.747848,0 37.760112,18.011305 37.760112,37.759156 0,19.749767 -18.012264,37.761075 -37.760112,37.761075 z"
     id="path3014"
     inkscape:connector-curvature="0"
     sodipodi:nodetypes="cccccscccccccscccccccscccccccscccsssss" /><path
     style="fill:#00da3c;fill-opacity:1;stroke:#000000;stroke-width:2.00000002999999982;stroke-miterlimit:4;stroke-opacity:1;stroke-dasharray:none;stroke-dashoffset:0"
     d="M 23.158513,37.047289 C 33.835855,19.636847 52.991289,19.150483 64.687927,26.76368 71.929192,31.476914 71.058096,37.572568 70.41493,41.173197 69.77177,44.773832 65.182437,52.543063 54.741816,50.205976 44.301203,47.868883 47.367045,37.396303 34.12863,34.749233 29.939126,34.366397 26.503135,35.25752 23.158513,37.047289 z"
     id="path3877"
     inkscape:connector-curvature="0"
     sodipodi:nodetypes="cszzcc" /><path
     style="fill:#00cbe7;fill-opacity:1;stroke:#000000;stroke-width:2.00000002999999982;stroke-miterlimit:4;stroke-opacity:1;stroke-dasharray:none;stroke-dashoffset:0"
     d="M 77.736865,39.453346 C 87.647643,57.311272 78.652894,74.230509 66.272512,80.672445 58.607979,84.66057 53.72831,80.904947 50.909186,78.57455 48.090071,76.244155 43.581272,68.427902 50.749764,60.48555 57.918277,52.543194 65.530151,60.362028 74.344192,50.135784 76.737403,46.675865 77.650876,43.245755 77.736857,39.453342 z"
     id="path3877-4"
     inkscape:connector-curvature="0"
     sodipodi:nodetypes="cszzcc" /><path
     style="fill:#df151a;fill-opacity:1;stroke:#000000;stroke-width:2.00000002999999982;stroke-miterlimit:4;stroke-opacity:1;stroke-dasharray:none;stroke-dashoffset:0"
     d="M 48.152909,86.216215 C 27.740503,85.536139 17.852618,69.122866 18.691997,55.192038 c 0.51968,-8.624402 6.249584,-10.879047 9.697759,-12.099013 3.44817,-1.219974 12.470374,-1.068932 15.597394,9.162889 3.12704,10.231816 -7.492697,12.74105 -3.252683,25.558442 1.737311,3.831482 4.20979,6.378423 7.418444,8.401856 z"
     id="path3877-7"
     inkscape:connector-curvature="0"
     sodipodi:nodetypes="cszzcc" /></svg>