<?xml version="1.0" encoding="UTF-8" standalone="no"?>
<!-- Generator: Adobe Illustrator 16.0.4, SVG Export Plug-In . SVG Version: 6.00 Build 0)  -->

<svg
   xmlns:dc="http://purl.org/dc/elements/1.1/"
   xmlns:cc="http://creativecommons.org/ns#"
   xmlns:rdf="http://www.w3.org/1999/02/22-rdf-syntax-ns#"
   xmlns:svg="http://www.w3.org/2000/svg"
   xmlns="http://www.w3.org/2000/svg"
   xmlns:sodipodi="http://sodipodi.sourceforge.net/DTD/sodipodi-0.dtd"
   xmlns:inkscape="http://www.inkscape.org/namespaces/inkscape"
   version="1.1"
   id="Layer_1"
   x="0px"
   y="0px"
   width="104.718px"
   height="112.004px"
   viewBox="0 0 104.718 112.004"
   enable-background="new 0 0 104.718 112.004"
   xml:space="preserve"
   inkscape:version="0.48.5 r10040"
   sodipodi:docname="settings39.svg"><metadata
     id="metadata3020"><rdf:RDF><cc:Work
         rdf:about=""><dc:format>image/svg+xml</dc:format><dc:type
           rdf:resource="http://purl.org/dc/dcmitype/StillImage" /><dc:title></dc:title></cc:Work></rdf:RDF></metadata><defs
     id="defs3018" /><sodipodi:namedview
     pagecolor="#ffffff"
     bordercolor="#666666"
     borderopacity="1"
     objecttolerance="10"
     gridtolerance="10"
     guidetolerance="10"
     inkscape:pageopacity="0"
     inkscape:pageshadow="2"
     inkscape:window-width="1600"
     inkscape:window-height="885"
     id="namedview3016"
     showgrid="false"
     inkscape:zoom="2.1906901"
     inkscape:cx="101.69256"
     inkscape:cy="54.87109"
     inkscape:window-x="0"
     inkscape:window-y="15"
     inkscape:window-maximized="0"
     inkscape:current-layer="Layer_1" /><path
     d="m 98.62283,30.019515 c -5.077529,-8.997979 -5.837095,-8.429978 -5.837095,-8.429978 -5.588057,1.845764 -9.615788,2.726979 -12.106179,3.159924 -4.092864,-3.585206 -8.873459,-6.386897 -14.130102,-8.198179 -0.860143,-2.355336 -2.175261,-6.459694 -3.436741,-12.564986 0,0 0.101532,-0.9473066 -10.107161,-0.9473066 -10.225932,0 -10.114822,0.9473066 -10.114822,0.9473066 -1.214547,5.8955249 -2.484648,9.950075 -3.346706,12.346598 -5.211627,1.703046 -9.982642,4.375428 -14.088914,7.822705 -2.476029,-0.487543 -6.476939,-1.456879 -12.015181,-3.41471 0,0 -0.750955,-0.585242 -6.0123878,8.305457 -5.2700527,8.881122 -4.4118173,9.274794 -4.4118173,9.274794 4.0823242,3.835205 6.7460795,6.847622 8.3677111,8.855261 -0.701141,3.057435 -1.109177,6.230769 -1.109177,9.502761 0,2.964524 0.308416,5.850506 0.885045,8.643577 -1.666648,1.974114 -4.3850071,4.918524 -8.5142752,8.637828 0,0 -0.8677981,0.378349 4.2145118,9.372496 5.0775284,8.995102 5.8332644,8.435725 5.8332644,8.435725 5.591886,-1.846723 9.618663,-2.73177 12.110012,-3.165673 4.092863,3.59 8.877287,6.392643 14.137769,8.201058 0.867806,2.359169 2.177168,6.453947 3.432909,12.564027 0,0 -0.11111,0.9521 10.111951,0.9521 10.210606,0 10.106201,-0.9521 10.106201,-0.9521 1.217419,-5.89073 2.480814,-9.94911 3.347662,-12.341806 5.210667,-1.702094 9.981684,-4.375437 14.085083,-7.821753 2.481772,0.486584 6.481724,1.455921 12.014227,3.417587 0,0 0.746158,0.579492 6.025789,-8.304503 5.260473,-8.889741 4.403203,-9.279583 4.403203,-9.279583 -4.085199,-3.837121 -6.744173,-6.852411 -8.365797,-8.856219 0.698262,-3.066054 1.103436,-6.235558 1.103436,-9.507551 0,-2.963565 -0.306513,-5.851463 -0.885053,-8.644533 1.667608,-1.965494 4.380218,-4.910861 8.516184,-8.634956 -0.002,0.0028 0.86973,-0.376432 -4.21355,-9.375368 z m -45.882597,64.42072 c -19.747861,0 -37.758204,-18.012263 -37.758204,-37.761073 0,-19.747851 18.010343,-37.759156 37.758204,-37.759156 19.747848,0 37.760112,18.011305 37.760112,37.759156 0,19.749767 -18.012264,37.761073 -37.760112,37.761073 z"
     id="path3014"
     inkscape:connector-curvature="0"
     sodipodi:nodetypes="cccccscccccccscccccccscccccccscccsssss" /><path
     style="fill:#00ff00;fill-opacity:1;stroke:#000000;stroke-width:4.35659266;stroke-miterlimit:4;stroke-opacity:1;stroke-dasharray:none"
     d="M 25.898461,40.952097 C 35.618674,22.989732 54.719741,21.468159 66.810983,28.43768 74.296529,32.752423 73.756367,38.886255 73.308854,42.516401 72.861348,46.146545 68.698883,54.152595 58.147157,52.38354 47.595431,50.614482 50.090473,39.991411 36.728252,38.064153 32.524173,37.908482 29.141399,38.984071 25.898461,40.952097 z"
     id="path3877"
     inkscape:connector-curvature="0"
     sodipodi:nodetypes="cszzcc" /><path
     style="fill:#0000ff;fill-opacity:1;stroke:#000000;stroke-width:4.35659266;stroke-miterlimit:4;stroke-opacity:1;stroke-dasharray:none"
     d="M 79.282031,41.384016 C 90.144046,58.679847 82.077434,76.060757 70.063542,83.162781 62.625889,87.559559 57.550264,84.07333 54.609244,81.898787 51.66823,79.724252 46.743332,72.16327 53.47183,63.844875 c 6.728504,-8.3184 14.752077,-0.922654 23.000191,-11.610581 2.20261,-3.584276 2.929245,-7.058764 2.81001,-10.850278 z"
     id="path3877-4"
     inkscape:connector-curvature="0"
     sodipodi:nodetypes="cszzcc" /><path
     style="fill:#ff0000;fill-opacity:1;stroke:#000000;stroke-width:4.35659266;stroke-miterlimit:4;stroke-opacity:1;stroke-dasharray:none"
     d="M 52.000506,87.90415 C 31.581194,88.328952 20.82017,72.474415 20.904957,58.518578 c 0.05252,-8.639882 5.652109,-11.201103 9.029266,-12.605752 3.377151,-1.404662 12.394316,-1.741754 16.070092,8.305987 3.675783,10.047739 -6.792711,13.127604 -1.865756,25.696949 1.941964,3.731924 4.548567,6.141423 7.861947,7.988388 z"
     id="path3877-7"
     inkscape:connector-curvature="0"
     sodipodi:nodetypes="cszzcc" /></svg>